#!OML:ASF \\sashay\E\Suitcase\Project 1\Capture day 1\Session 1\Male1.ASF
:FULLY-SPECIFIED
:DEGREES
574
root -1.07863 17.5437 9.63872 5.65237 3.92224 -2.10936
lowerback 4.32568 -3.13379 4.25779
upperback -0.341517 -3.86862 2.93169
thorax -2.8554 -1.96725 0.904178
lowerneck -5.74025 -1.47378 3.39556
upperneck 9.94149 -1.06616 -12.312
head 3.8003 -1.02544 -4.39475
rclavicle 1.49089e-014 -1.59028e-015
rhumerus -45.3334 -31.807 -51.8816
rradius 10.0277
rwrist 3.23169
rhand -12.732 19.6067
rfingers 7.12502
rthumb 13.3515 -9.94551
lclavicle 1.49089e-014 -1.59028e-015
lhumerus -36.8892 -6.0945 88.0508
lradius 36.3561
lwrist -2.51239
lhand 0.465817 44.9452
lfingers 7.12502
lthumb 26.0365 73.1811
rfemur -6.05885 -0.241958 22.9003
rtibia 13.7853
rfoot -12.3776 -20.0574
rtoes 18.1074
lfemur -8.85053 -3.84687 -10.1366
ltibia 16.7523
lfoot -14.5446 0.820225
ltoes -1.29787
575
root -1.09361 17.5442 9.66196 5.70503 3.64803 -1.86451
lowerback 4.34083 -3.01863 3.9496
upperback -0.30292 -3.73392 2.88923
thorax -2.80427 -1.89551 1.02015
lowerneck -5.69871 -1.47851 3.42132
upperneck 9.794 -1.09513 -12.2464
head 3.7469 -1.02982 -4.37639
rclavicle -4.01545e-014 9.54166e-015
rhumerus -46.0375 -31.25 -51.7119
rradius 10.2594
rwrist 2.74276
rhand -12.8745 19.9715
rfingers 7.12502
rthumb 13.2142 -9.58968
lclavicle -4.01545e-014 9.54166e-015
lhumerus -36.7326 -6.01924 87.9759
lradius 36.2072
lwrist -2.67449
lhand 0.0932728 44.4992
lfingers 7.12502
lthumb 25.6797 72.7871
rfemur -6.10908 0.484769 22.6961
rtibia 13.9241
rfoot -12.5097 -20.5188
rtoes 18.5593
lfemur -8.65583 -3.93846 -10.316
ltibia 16.5428
lfoot -14.5206 0.906228
ltoes -1.89676
576
root -1.09172 17.5448 9.67124 5.82749 3.50401 -1.73534
lowerback 4.41285 -2.98177 3.95968
upperback -0.376568 -3.67754 2.85072
thorax -2.92327 -1.86943 0.978146
lowerneck -5.57985 -1.45676 3.38331
upperneck 9.66068 -1.10465 -11.928
head 3.68875 -1.01285 -4.26677
rclavicle 2.8625e-014 3.97569e-015
rhumerus -46.4175 -31.0416 -51.306
rradius 9.81606
rwrist 2.68875
rhand -12.8818 19.382
rfingers 7.12502
rthumb 13.2071 -10.1796
lclavicle 2.8625e-014 3.97569e-015
lhumerus -36.8983 -5.96738 87.9226
lradius 36.1251
lwrist -2.6154
lhand 0.217555 44.6464
lfingers 7.12502
lthumb 25.7987 72.9171
rfemur -6.28178 0.509112 22.5511
rtibia 14.0291
rfoot -12.6713 -20.5171
rtoes 18.8016
lfemur -8.5804 -3.94577 -10.4197
ltibia 16.347
lfoot -14.4149 0.675813
ltoes -2.87155
577
root -1.09355 17.5447 9.67658 5.77504 3.47071 -1.72383
lowerback 4.6686 -3.01649 4.03235
upperback -0.341388 -3.70438 2.86798
thorax -3.0345 -1.88414 0.971586
lowerneck -6.08556 -1.32759 3.46374
upperneck 9.96367 -0.917765 -11.8656
head 3.88058 -0.938296 -4.26512
rclavicle -5.41688e-014 1.98785e-014
rhumerus -47.0122 -30.7084 -50.8744
rradius 9.99319
rwrist 2.29971
rhand -12.3256 19.6192
rfingers 7.12502
rthumb 13.7432 -9.90697
lclavicle -5.41688e-014 1.98785e-014
lhumerus -37.0229 -5.74333 87.8434
lradius 36.3266
lwrist -2.43134
lhand 0.245462 44.7531
lfingers 7.12502
lthumb 25.8255 73.0198
rfemur -6.22485 0.721681 22.5577
rtibia 14.0863
rfoot -12.675 -20.6253
rtoes 18.7365
lfemur -8.4539 -4.17274 -10.3689
ltibia 16.2392
lfoot -14.2255 0.812778
ltoes -1.16151
578
root -1.08771 17.5481 9.69163 5.97735 3.5593 -1.5955
lowerback 4.53272 -3.09924 4.08669
upperback -0.298469 -3.82226 2.85908
thorax -2.91979 -1.9423 0.931447
lowerneck -6.8305 -1.17147 3.55974
upperneck 10.318 -0.691378 -11.8294
head 4.13229 -0.853197 -4.27571
rclavicle 9.93923e-015 -3.97569e-014
rhumerus -47.2128 -30.4825 -50.6147
rradius 9.9963
rwrist 2.29819
rhand -12.4299 18.9436
rfingers 7.12502
rthumb 13.6427 -10.5893
lclavicle 9.93923e-015 -3.97569e-014
lhumerus -36.6978 -5.53776 87.7543
lradius 36.0779
lwrist -2.57532
lhand 0.267306 44.5716
lfingers 7.12502
lthumb 25.8464 72.8353
rfemur -6.41549 0.312568 22.4014
rtibia 14.147
rfoot -12.7727 -20.4411
rtoes 18.684
lfemur -8.50865 -4.08073 -10.4923
ltibia 16.056
lfoot -14.1521 0.473075
ltoes 0.373214
579
root -1.09197 17.552 9.70314 6.13358 3.44527 -1.76821
lowerback 4.62335 -3.04 4.30952
upperback -0.431901 -3.71746 2.89941
thorax -3.11901 -1.89624 0.852941
lowerneck -7.14294 -1.1128 3.74281
upperneck 10.6639 -0.60704 -11.7991
head 4.29566 -0.821247 -4.30347
rclavicle 4.50247e-014 -3.97569e-015
rhumerus -47.9297 -30.1923 -50.0701
rradius 9.83508
rwrist 2.18589
rhand -12.2878 19.0738
rfingers 7.12502
rthumb 13.7796 -10.4498
lclavicle 4.50247e-014 -3.97569e-015
lhumerus -36.943 -4.99296 87.4699
lradius 36.2274
lwrist -3.10996
lhand 0.430513 44.7705
lfingers 7.12502
lthumb 26.0027 73.0114
rfemur -6.55809 0.421082 22.5962
rtibia 14.133
rfoot -12.7377 -20.4569
rtoes 18.4829
lfemur -8.58958 -4.22401 -10.2442
ltibia 15.9782
lfoot -14.0561 0.472037
ltoes -0.158008
580
root -1.07655 17.558 9.74122 6.18767 3.70268 -1.14479
lowerback 4.4808 -3.20069 4.0602
upperback -0.47826 -3.95897 2.69348
thorax -3.0887 -2.01425 0.790577
lowerneck -7.49065 -0.986053 3.77513
upperneck 11.0065 -0.420525 -11.7147
head 4.47443 -0.742783 -4.28344
rclavicle 2.15681e-014 7.95139e-016
rhumerus -48.7777 -29.7237 -49.6717
rradius 10.3596
rwrist 2.12751
rhand -11.8295 18.5598
rfingers 7.12502
rthumb 14.2213 -10.9334
lclavicle 2.15681e-014 7.95139e-016
lhumerus -37.3354 -4.80734 87.3873
lradius 36.5857
lwrist -3.12234
lhand 0.525845 44.7249
lfingers 7.12502
lthumb 26.0939 72.9523
rfemur -6.33936 -0.630706 21.8585
rtibia 14.0364
rfoot -12.7823 -19.8828
rtoes 17.5161
lfemur -8.50889 -4.39425 -10.9976
ltibia 15.9984
lfoot -14.2627 0.276399
ltoes -0.0673556
581
root -1.08387 17.5583 9.73686 6.35572 3.52406 -1.37254
lowerback 4.79697 -3.18153 4.28471
upperback -0.679557 -3.88894 2.76109
thorax -3.48456 -1.98794 0.759314
lowerneck -7.74688 -0.881629 3.88501
upperneck 11.3176 -0.274526 -11.6515
head 4.62434 -0.678316 -4.2831
rclavicle 1.97791e-014 -5.56597e-015
rhumerus -49.0065 -28.5365 -50.1594
rradius 10.4882
rwrist 0.905142
rhand -11.5351 17.8431
rfingers 7.12502
rthumb 14.505 -11.6298
lclavicle 1.97791e-014 -5.56597e-015
lhumerus -37.6229 -4.44235 87.2243
lradius 36.5245
lwrist -3.29317
lhand 0.0496282 44.5472
lfingers 7.12502
lthumb 25.6379 72.8411
rfemur -6.55254 0.0235377 22.115
rtibia 13.9461
rfoot -12.935 -20.2616
rtoes 19.0024
lfemur -8.65251 -4.44748 -10.6705
ltibia 15.9489
lfoot -14.1236 0.428287
ltoes -0.560749
582
root -1.08765 17.5559 9.73351 6.44251 3.52286 -1.58251
lowerback 5.1249 -3.18764 4.58276
upperback -0.735859 -3.85146 2.80943
thorax -3.74399 -1.97728 0.664642
lowerneck -8.45225 -0.798012 3.94795
upperneck 11.732 -0.152124 -11.5518
head 4.88215 -0.640127 -4.27197
rclavicle -7.65321e-015 2.38542e-015
rhumerus -49.2924 -27.9445 -50.2918
rradius 10.7605
rwrist 0.38924
rhand -11.4261 17.564
rfingers 7.12502
rthumb 14.6099 -11.9014
lclavicle -7.65321e-015 2.38542e-015
lhumerus -37.5654 -4.7359 87.337
lradius 36.3159
lwrist -2.96832
lhand 0.0268155 44.5779
lfingers 7.12502
lthumb 25.6161 72.8749
rfemur -6.6036 0.0864075 22.401
rtibia 13.8137
rfoot -12.7242 -20.3415
rtoes 18.2246
lfemur -8.82865 -4.40848 -10.3817
ltibia 16.0191
lfoot -14.0161 0.394182
ltoes -0.11498
583
root -1.08806 17.5626 9.76629 6.555 3.63962 -1.56184
lowerback 4.89072 -3.28408 4.69124
upperback -0.808931 -3.98619 2.80566
thorax -3.69939 -2.04689 0.601308
lowerneck -8.5613 -0.700198 3.94319
upperneck 11.9425 -0.0142826 -11.4492
head 4.97682 -0.57478 -4.23543
rclavicle -2.25621e-014 1.19271e-014
rhumerus -49.7665 -27.5986 -49.8315
rradius 10.5767
rwrist 0.687422
rhand -11.0835 16.9752
rfingers 7.12502
rthumb 14.94 -12.4659
lclavicle -2.25621e-014 1.19271e-014
lhumerus -37.7715 -4.05547 87.0577
lradius 36.3517
lwrist -3.43275
lhand 0.412884 44.7918
lfingers 7.12502
lthumb 25.9858 73.0352
rfemur -6.53326 -0.176895 22.3661
rtibia 13.6658
rfoot -12.8027 -20.2804
rtoes 18.0747
lfemur -8.91752 -4.45965 -10.4127
ltibia 16.1358
lfoot -14.3054 0.37176
ltoes -1.05385
584
root -1.10904 17.5508 9.77052 6.42186 3.4479 -1.86613
lowerback 5.14387 -3.2278 4.79511
upperback -0.746188 -3.88516 2.92255
thorax -3.77317 -1.99745 0.668991
lowerneck -8.84886 -0.654875 3.85017
upperneck 12.1117 0.0496839 -11.2758
head 5.08422 -0.548711 -4.16718
rclavicle 3.91606e-014 -3.65764e-014
rhumerus -50.1042 -27.5073 -49.4202
rradius 10.4993
rwrist 0.723597
rhand -10.8633 16.8436
rfingers 7.12502
rthumb 15.1522 -12.5817
lclavicle 3.91606e-014 -3.65764e-014
lhumerus -37.9005 -3.88663 86.9507
lradius 36.5088
lwrist -3.42385
lhand 0.445155 44.9507
lfingers 7.12502
lthumb 26.0167 73.1895
rfemur -6.40493 0.502949 22.8121
rtibia 13.6343
rfoot -12.933 -20.8687
rtoes 18.2409
lfemur -8.82905 -4.34377 -10.0002
ltibia 16.2238
lfoot -14.1533 0.529245
ltoes -1.26583
585
root -1.10389 17.5602 9.77844 6.57566 3.58394 -1.66616
lowerback 4.99094 -3.34211 4.76478
upperback -0.60749 -4.05981 2.83975
thorax -3.55132 -2.08043 0.599849
lowerneck -9.58904 -0.516611 3.9649
upperneck 12.3212 0.22004 -11.194
head 5.29025 -0.480372 -4.16194
rclavicle 5.36719e-015 3.97569e-014
rhumerus -50.1634 -27.3731 -49.3808
rradius 10.4202
rwrist 0.842356
rhand -10.5189 16.3786
rfingers 7.12502
rthumb 15.4839 -13.0214
lclavicle 5.36719e-015 3.97569e-014
lhumerus -37.6351 -3.71829 86.7671
lradius 36.5855
lwrist -3.44318
lhand 0.245493 45.0868
lfingers 7.12502
lthumb 25.8255 73.3535
rfemur -6.49123 0.253316 22.5672
rtibia 13.6028
rfoot -12.9105 -20.7154
rtoes 17.873
lfemur -8.98774 -4.40755 -10.2485
ltibia 16.2216
lfoot -14.2445 0.50342
ltoes -2.04685
586
root -1.11892 17.5546 9.78884 6.66943 3.46669 -1.57929
lowerback 4.96517 -3.25636 4.58176
upperback -0.598124 -3.96015 2.82246
thorax -3.5127 -2.02735 0.672004
lowerneck -9.93589 -0.525203 3.89357
upperneck 12.5312 0.208719 -11.0169
head 5.41431 -0.491358 -4.10233
rclavicle -7.65321e-015 4.77083e-015
rhumerus -50.4057 -27.0883 -49.2487
rradius 10.1825
rwrist 0.464107
rhand -10.4928 16.8767
rfingers 7.12502
rthumb 15.5091 -12.5213
lclavicle -7.65321e-015 4.77083e-015
lhumerus -37.6604 -3.70165 86.7261
lradius 36.6818
lwrist -3.64053
lhand 0.425779 44.8219
lfingers 7.12502
lthumb 25.9981 73.0634
rfemur -6.58828 0.286601 22.541
rtibia 13.5703
rfoot -12.8801 -20.8148
rtoes 17.7795
lfemur -9.11965 -4.29139 -10.3035
ltibia 16.3131
lfoot -14.2025 0.657044
ltoes -2.07463
587
root -1.13695 17.5517 9.80931 6.74556 3.38618 -1.87517
lowerback 4.78878 -3.26467 4.75324
upperback -0.465957 -3.97638 2.92067
thorax -3.28181 -2.03372 0.662932
lowerneck -10.6067 -0.429102 3.81793
upperneck 12.7869 0.340248 -10.8371
head 5.6205 -0.442175 -4.03529
rclavicle 4.05521e-014 -1.27222e-014
rhumerus -50.5772 -27.3927 -48.7866
rradius 10.0655
rwrist 0.976606
rhand -10.0883 16.5536
rfingers 7.12502
rthumb 15.8986 -12.8137
lclavicle 4.05521e-014 -1.27222e-014
lhumerus -37.4858 -3.82454 86.7534
lradius 36.6809
lwrist -3.08719
lhand -0.0170286 45.1955
lfingers 7.12502
lthumb 25.5741 73.4986
rfemur -6.62079 0.772967 22.9367
rtibia 13.626
rfoot -13.2635 -21.0368
rtoes 18.3781
lfemur -9.03436 -4.05488 -9.89418
ltibia 16.1126
lfoot -14.2568 0.462291
ltoes -2.16337
588
root -1.12626 17.5547 9.81275 6.80508 3.4839 -1.80068
lowerback 4.9113 -3.32013 4.92287
upperback -0.507819 -4.03021 2.87019
thorax -3.41125 -2.06554 0.531984
lowerneck -10.9335 -0.396722 3.72802
upperneck 12.9937 0.391615 -10.6902
head 5.74559 -0.424257 -3.97696
rclavicle 3.08116e-015 -1.66979e-014
rhumerus -51.2395 -27.8096 -47.8182
rradius 10.0344
rwrist 2.20636
rhand -9.96425 15.7902
rfingers 7.12502
rthumb 16.0181 -13.5676
lclavicle 3.08116e-015 -1.66979e-014
lhumerus -37.4203 -4.21307 86.9014
lradius 36.4972
lwrist -2.70001
lhand -0.410881 44.9125
lfingers 7.12502
lthumb 25.1968 73.2692
rfemur -6.66341 0.215761 22.8052
rtibia 13.592
rfoot -13.2064 -20.6744
rtoes 18.4812
lfemur -9.06764 -4.24293 -10.0348
ltibia 16.1197
lfoot -14.1521 0.714214
ltoes -2.56754
